<svg width="1200" height="1500" viewBox="0 0 1200 1500" fill="none" xmlns="http://www.w3.org/2000/svg">
  <rect width="1200" height="1500" rx="48" fill="#07110A"/>
  <rect width="1200" height="1500" rx="48" fill="url(#bg)"/>
  <circle cx="927" cy="233" r="246" fill="url(#glow1)" fill-opacity="0.9"/>
  <circle cx="250" cy="1272" r="318" fill="url(#glow2)" fill-opacity="0.7"/>
  <g opacity="0.95">
    <rect x="224" y="180" width="752" height="1140" rx="76" fill="url(#phone)" stroke="#FFFFFF" stroke-opacity="0.12"/>
    <rect x="504" y="212" width="192" height="22" rx="11" fill="#15251A"/>
    <rect x="292" y="294" width="616" height="616" rx="48" fill="url(#art)"/>
    <circle cx="396" cy="1164" r="54" fill="#0D1E12"/>
    <circle cx="600" cy="1164" r="90" fill="#1ED760"/>
    <circle cx="804" cy="1164" r="54" fill="#0D1E12"/>
    <path d="M575 1128L642 1164L575 1200V1128Z" fill="#06110A"/>
    <rect x="324" y="972" width="352" height="30" rx="15" fill="#F5FFF7"/>
    <rect x="324" y="1018" width="428" height="22" rx="11" fill="#8DB49A"/>
    <rect x="324" y="1078" width="560" height="10" rx="5" fill="#17301E"/>
    <rect x="324" y="1078" width="422" height="10" rx="5" fill="#1ED760"/>
  </g>
  <text x="112" y="136" fill="#C7FFD9" font-family="Manrope, Arial, sans-serif" font-size="32" font-weight="700" letter-spacing="0.3em">SPOTIFY REDESIGN</text>
  <text x="112" y="1420" fill="white" font-family="Georgia, serif" font-size="112" font-style="italic">Resonance</text>
  <text x="112" y="1470" fill="#B8C6BD" font-family="Manrope, Arial, sans-serif" font-size="34">A more immersive music player case study</text>
  <defs>
    <linearGradient id="bg" x1="0" y1="0" x2="1200" y2="1500" gradientUnits="userSpaceOnUse">
      <stop stop-color="#09150C"/>
      <stop offset="0.45" stop-color="#0C1A10"/>
      <stop offset="1" stop-color="#030704"/>
    </linearGradient>
    <radialGradient id="glow1" cx="0" cy="0" r="1" gradientUnits="userSpaceOnUse" gradientTransform="translate(927 233) rotate(90) scale(246)">
      <stop stop-color="#2AE26B"/>
      <stop offset="1" stop-color="#2AE26B" stop-opacity="0"/>
    </radialGradient>
    <radialGradient id="glow2" cx="0" cy="0" r="1" gradientUnits="userSpaceOnUse" gradientTransform="translate(250 1272) rotate(90) scale(318)">
      <stop stop-color="#1C8CFF"/>
      <stop offset="1" stop-color="#1C8CFF" stop-opacity="0"/>
    </radialGradient>
    <linearGradient id="phone" x1="224" y1="180" x2="976" y2="1320" gradientUnits="userSpaceOnUse">
      <stop stop-color="#122018"/>
      <stop offset="1" stop-color="#0A140E"/>
    </linearGradient>
    <linearGradient id="art" x1="292" y1="294" x2="908" y2="910" gradientUnits="userSpaceOnUse">
      <stop stop-color="#FF9052"/>
      <stop offset="0.45" stop-color="#E43F76"/>
      <stop offset="1" stop-color="#3557FF"/>
    </linearGradient>
  </defs>
</svg>
